<svg viewBox="0 0 279.89 204.68" xmlns="http://www.w3.org/2000/svg"><defs><style>.cls-1,.cls-15{fill:#070102;}.cls-16,.cls-2,.cls-9{fill:#fff;}.cls-10,.cls-2,.cls-3,.cls-4,.cls-5,.cls-6,.cls-7{stroke:#060001;}.cls-10,.cls-11,.cls-12,.cls-13,.cls-14,.cls-15,.cls-16,.cls-17,.cls-18,.cls-2,.cls-3,.cls-4,.cls-5,.cls-6,.cls-7{stroke-miterlimit:10;}.cls-10,.cls-11,.cls-13,.cls-16,.cls-17,.cls-2,.cls-3,.cls-4,.cls-5,.cls-6{stroke-width:0.96px;}.cls-3{fill:#91c5c8;}.cls-4{fill:none;}.cls-5{fill:#64a19f;}.cls-6{fill:#d27426;}.cls-7{fill:#6c5980;}.cls-12,.cls-14,.cls-15,.cls-18,.cls-7{stroke-width:0.48px;}.cls-8{fill:#de9b55;}.cls-10{fill:#d48751;}.cls-11{fill:#dc97a3;}.cls-11,.cls-12,.cls-13,.cls-14,.cls-15,.cls-16,.cls-17,.cls-18{stroke:#040000;}.cls-12{fill:#c55161;}.cls-13{fill:#d9a679;}.cls-14{fill:#df924b;}.cls-17{fill:#b6a884;}.cls-18{fill:#c64f61;}</style></defs><g id="图层_2"><g id="图层_1-2"><path d="M224.85,86.88,178.7,71.34A5.87,5.87,0,0,1,175.06,64l3.81-11.73a5.72,5.72,0,0,1,7.24-3.71l46.15,15.53a5.89,5.89,0,0,1,3.64,7.38l-3.81,11.73A5.72,5.72,0,0,1,224.85,86.88Z" class="cls-1"></path><path d="M228.15,84.8,177.27,67.67A3.61,3.61,0,0,1,175,63.14L181.57,43A3.5,3.5,0,0,1,186,40.73L236.9,57.86a3.62,3.62,0,0,1,2.24,4.53L232.6,82.52A3.52,3.52,0,0,1,228.15,84.8Z" class="cls-2"></path><path d="M225.69,85.23,179,69.51a5.87,5.87,0,0,1-3.64-7.37l5.14-15.86a5.72,5.72,0,0,1,7.24-3.71l46.69,15.72a5.87,5.87,0,0,1,3.64,7.37l-5.14,15.86A5.72,5.72,0,0,1,225.69,85.23Z" class="cls-3"></path><line y2="74.66" x2="234.86" y1="55.46" x1="177.82" class="cls-4"></line><line y2="77.87" x2="233.81" y1="58.67" x1="176.78" class="cls-4"></line><line y2="81.09" x2="232.77" y1="61.89" x1="175.74" class="cls-4"></line><path d="M217.74,55.35l-14.87-5A2.68,2.68,0,0,1,201.2,47h0a2.62,2.62,0,0,1,3.32-1.7l14.87,5a2.71,2.71,0,0,1,1.67,3.39h0A2.63,2.63,0,0,1,217.74,55.35Z" class="cls-5"></path><path d="M217.45,56.23l-14.87-5a2.7,2.7,0,0,1-1.67-3.38h0a2.62,2.62,0,0,1,3.32-1.7l14.87,5a2.69,2.69,0,0,1,1.67,3.38h0A2.62,2.62,0,0,1,217.45,56.23Z" class="cls-5"></path><path d="M216,53.09,205.7,49.62A2.1,2.1,0,0,1,204.4,47c-.15-1.64,13.32,4.1,13.76,3.89C219.63,51.88,217.19,53.73,216,53.09Z" class="cls-2"></path><path d="M113.76,52.36s12.63-33,37.39-6.26l-6.67,1.37s-14-13.88-22.93,3.84Z" class="cls-6"></path><path d="M180.26,97.16l-79,13.23c-3.11.52-5.64-2.35-5.62-6.28l.22-40.76a5.91,5.91,0,0,1,4.6-5.75l64-10.72a5.84,5.84,0,0,1,6.17,3.95l13,38.54C184.86,93.09,183.37,96.64,180.26,97.16Z" class="cls-1"></path><path d="M178.88,92l-77.46,13c-3,.51-5.53-2.25-5.52-6l.18-39.34a5.78,5.78,0,0,1,4.53-5.58l63-10.55a5.69,5.69,0,0,1,6,3.8L182.2,84.51C183.41,88.09,181.93,91.51,178.88,92Z" class="cls-7"></path><path d="M96.23,98.69c0,3.9,2.49,6.77,5.52,6.26l76.92-12.89c3-.51,4.48-4,3.25-7.73L178,72.53,96.2,86.23Z" class="cls-8"></path><polygon points="178 72.78 96.18 86.49 96.19 85.69 177.72 72.03 178 72.78" class="cls-9"></polygon><polygon points="164.48 74.25 156.23 44.98 157.18 44.82 165.43 74.09 164.48 74.25" class="cls-8"></polygon><polygon points="160.63 74.89 152.38 45.63 153.33 45.47 161.58 74.73 160.63 74.89" class="cls-8"></polygon><path d="M127.85,44.22h0a1.5,1.5,0,0,1-1.7-1.24l-.86-5.35a1.51,1.51,0,0,1,1.21-1.73h0a1.5,1.5,0,0,1,1.7,1.24l.86,5.35A1.51,1.51,0,0,1,127.85,44.22Z" class="cls-10"></path><path d="M124.77,46.53h0a1.47,1.47,0,0,1-1.69-1.23l-.87-5.36a1.51,1.51,0,0,1,1.22-1.72h0a1.48,1.48,0,0,1,1.69,1.24l.87,5.35A1.5,1.5,0,0,1,124.77,46.53Z" class="cls-10"></path><path d="M131.23,43h0a1.48,1.48,0,0,1-1.69-1.24l-.87-5.35a1.5,1.5,0,0,1,1.22-1.72h0a1.47,1.47,0,0,1,1.69,1.23l.87,5.36A1.5,1.5,0,0,1,131.23,43Z" class="cls-10"></path><path d="M134.78,42.67h0a1.5,1.5,0,0,1-1.7-1.24l-.86-5.35a1.51,1.51,0,0,1,1.21-1.73h0a1.5,1.5,0,0,1,1.7,1.24l.86,5.35A1.51,1.51,0,0,1,134.78,42.67Z" class="cls-10"></path><path d="M138.44,43.73h0a1.48,1.48,0,0,1-1.69-1.24l-.87-5.35a1.5,1.5,0,0,1,1.21-1.72h0a1.48,1.48,0,0,1,1.7,1.23l.86,5.36A1.5,1.5,0,0,1,138.44,43.73Z" class="cls-10"></path><polygon points="225.14 148.78 211.21 138.87 248.18 85 262.11 94.92 225.14 148.78" class="cls-11"></polygon><polygon points="248.18 85 211.21 138.87 182.35 128.03 215.26 86.6 248.18 85" class="cls-12"></polygon><polygon points="183.34 147.81 173.18 132.66 224.92 89.8 235.07 104.95 183.34 147.81" class="cls-13"></polygon><polygon points="173.49 132.24 145.01 113.1 178.57 86.74 224.92 89.8 173.49 132.24" class="cls-14"></polygon><ellipse ry="1.01" rx="0.91" cy="89.27" cx="187.84" class="cls-15"></ellipse><ellipse ry="1.21" rx="1.09" cy="91.09" cx="205.71" class="cls-15"></ellipse><path d="M205.71,91c12.38-17.25-9-6-17.79-1.79-.22.12-.38-.27-.16-.37C191.11,86.78,221,72.21,205.71,91Z" class="cls-16"></path><rect height="29.6" width="83.11" y="119.16" x="99.8" class="cls-15"></rect><rect height="7.51" width="86.49" y="114.61" x="97.91" class="cls-16"></rect><rect height="10.07" width="36.76" y="128.72" x="122.6" class="cls-17"></rect><rect transform="translate(32.24 53.66) rotate(-90)" rx="1.5" height="27.82" width="3.11" y="-3.2" x="41.4" class="cls-15"></rect><path d="M101.07,169l-.08,0a1.49,1.49,0,0,1-1.74-1.19L72.49,30.06a1.52,1.52,0,0,1,1.17-1.78h.08a1.48,1.48,0,0,1,1.74,1.18L102.24,167.2A1.51,1.51,0,0,1,101.07,169Z" class="cls-15"></path><rect transform="translate(2.33 357.73) rotate(-90)" rx="1.5" height="140.83" width="3.11" y="107.29" x="178.48" class="cls-15"></rect><path d="M74.65,29.78l-.05.06a1.47,1.47,0,0,1-2.1,0L54.93,11.94a1.52,1.52,0,0,1,0-2.13L55,9.75a1.46,1.46,0,0,1,2.09,0L74.65,27.64A1.53,1.53,0,0,1,74.65,29.78Z" class="cls-15"></path><path d="M111.77,178.8h0a1.5,1.5,0,0,1-2.16,0l-10-10.18a1.58,1.58,0,0,1,0-2.19h0a1.5,1.5,0,0,1,2.16,0l10,10.18A1.58,1.58,0,0,1,111.77,178.8Z" class="cls-15"></path><path d="M257.19,170.15h0a1.41,1.41,0,0,1,.18,1.9l-7.59,6.77a1.35,1.35,0,0,1-1.82-.44h0a1.41,1.41,0,0,1-.19-1.9l7.59-6.77C255.81,169.31,256.63,169.5,257.19,170.15Z" class="cls-15"></path><path d="M44,14.21,13.22,15.65a4.43,4.43,0,0,1-4.58-4.26v-.25a4.46,4.46,0,0,1,4.18-4.67L43.58,5a4.43,4.43,0,0,1,4.58,4.26l0,.25A4.45,4.45,0,0,1,44,14.21Z" class="cls-15"></path><ellipse ry="10.92" rx="10.72" cy="11.16" cx="10.96" class="cls-15"></ellipse><polygon points="279.15 68.45 80.5 68.45 80.5 67.08 279.56 67.08 279.15 68.45" class="cls-15"></polygon><rect height="1.37" width="187.12" y="87.8" x="85.75" class="cls-15"></rect><rect height="1.37" width="175.47" y="108.52" x="91.01" class="cls-15"></rect><rect height="1.37" width="166.45" y="129.24" x="93.85" class="cls-15"></rect><rect height="1.37" width="158.93" y="149.96" x="96.21" class="cls-15"></rect><polygon points="129.55 150.69 115.59 67.29 116.92 67.08 130.87 150.47 129.55 150.69" class="cls-15"></polygon><polygon points="162.31 151.38 154.79 67.13 156.13 67.02 163.66 151.27 162.31 151.38" class="cls-15"></polygon><polygon points="192.12 151.38 199.65 67.13 198.31 67.02 190.78 151.27 192.12 151.38" class="cls-15"></polygon><polygon points="223.29 150.42 240.34 68.05 239.11 67.8 222.07 150.17 223.29 150.42" class="cls-15"></polygon><polygon points="279.43 67.47 255.06 151.03 253.77 150.64 278.14 67.08 279.43 67.47" class="cls-15"></polygon><ellipse ry="13.12" rx="12.88" cy="191.32" cx="126.97" class="cls-15"></ellipse><ellipse ry="7.23" rx="7.09" cy="191.32" cx="126.97" class="cls-18"></ellipse><ellipse ry="5.63" rx="5.53" cy="191.32" cx="126.97" class="cls-15"></ellipse><ellipse ry="13.12" rx="12.88" cy="191.32" cx="233.52" class="cls-15"></ellipse><ellipse ry="7.23" rx="7.09" cy="191.32" cx="233.52" class="cls-18"></ellipse><ellipse ry="5.63" rx="5.53" cy="191.32" cx="233.52" class="cls-15"></ellipse></g></g></svg>